<svg width="40" height="40" viewBox="0 0 40 40" fill="none" xmlns="http://www.w3.org/2000/svg">
<g clip-path="url(#clip0)">
<path fill-rule="evenodd" clip-rule="evenodd" d="M23.9017 0.380427C20.0218 -0.391337 16.0001 0.00476004 12.3453 1.51863C8.69053 3.0325 5.56671 5.59615 3.36892 8.88539C1.17112 12.1746 -0.00195312 16.0417 -0.00195312 19.9976C-0.00195312 25.3024 2.10535 30.3899 5.85637 34.1409C9.60738 37.8919 14.6949 39.9992 19.9996 39.9992C23.9555 39.9992 27.8226 38.8261 31.1119 36.6283C34.4011 34.4305 36.9647 31.3067 38.4786 27.6519C39.9925 23.9971 40.3886 19.9755 39.6168 16.0955C38.8451 12.2156 36.9401 8.65169 34.1428 5.85442C31.3456 3.05715 27.7816 1.15219 23.9017 0.380427ZM13.6778 4.73548C16.6964 3.48515 20.0179 3.158 23.2224 3.79542C26.4269 4.43283 29.3704 6.00618 31.6808 8.31649C33.9911 10.6268 35.5644 13.5703 36.2018 16.7748C36.8392 19.9793 36.5121 23.3009 35.2618 26.3194C34.0114 29.338 31.8941 31.918 29.1774 33.7332C26.4608 35.5484 23.2669 36.5173 19.9996 36.5173C15.6183 36.5173 11.4165 34.7768 8.31844 31.6788C5.2204 28.5808 3.47994 24.3789 3.47994 19.9976C3.47994 16.7304 4.4488 13.5365 6.264 10.8198C8.07921 8.10318 10.6592 5.98581 13.6778 4.73548ZM29.3237 20.0386V21.292L14.4351 21.2951C14.4257 22.0652 14.6076 22.8256 14.9644 23.5081C15.3094 24.1634 15.7831 24.7424 16.3571 25.2103C16.9522 25.6924 17.6289 26.0639 18.3549 26.3075C19.111 26.5663 19.905 26.6965 20.7041 26.6928C21.7108 26.717 22.7034 26.4516 23.5639 25.9284C24.4133 25.3845 25.1677 24.7049 25.7969 23.9166L28.4617 25.9547C26.5026 28.4874 23.7604 29.7538 20.2352 29.7538C18.8737 29.7728 17.5221 29.5197 16.2596 29.0095C15.1193 28.5465 14.091 27.8453 13.2435 26.9528C12.4088 26.0591 11.7625 25.0065 11.3432 23.8578C10.8909 22.6224 10.6655 21.3154 10.6778 19.9999C10.6656 18.679 10.9116 17.3685 11.402 16.1419C11.8611 14.9906 12.5397 13.9394 13.3998 13.0469C14.2619 12.1617 15.2949 11.461 16.436 10.9872C17.6519 10.4844 18.9567 10.2323 20.2723 10.2459C21.923 10.247 23.3157 10.5343 24.4506 11.1079C25.5372 11.6439 26.4924 12.4127 27.2485 13.3595C27.98 14.2884 28.5192 15.3537 28.8347 16.4932C29.1596 17.6469 29.3242 18.8399 29.3237 20.0386ZM14.856 16.5721C14.5884 17.1704 14.4462 17.8171 14.4382 18.4725L25.5694 18.4709C25.5521 17.7385 25.427 17.0127 25.198 16.3168C24.9877 15.6856 24.6471 15.1057 24.1983 14.6145C23.7339 14.1176 23.1653 13.7297 22.5332 13.4787C21.7907 13.1904 20.999 13.0506 20.2027 13.067C19.3869 13.0575 18.5787 13.2243 17.8334 13.556C17.1495 13.8586 16.5309 14.2912 16.012 14.8296C15.5257 15.3367 15.1342 15.9269 14.856 16.5721Z" fill="white"/>
</g>
<defs>
<clipPath id="clip0">
<rect width="40" height="40" fill="white"/>
</clipPath>
</defs>
</svg>
