<?xml version="1.0" encoding="UTF-8"?>
<svg id="Layer_1" data-name="Layer 1" xmlns="http://www.w3.org/2000/svg" viewBox="0 0 400 400">
  <path d="M381.09911,125.33086l.01812,.06762c.26659,.99493,.50422,1.99756,.71027,2.99835,.10885,.56095,.22034,1.13149,.30992,1.6976,.1707,1.06201,.3124,2.1318,.42255,3.19967,.05022,.53527,.10049,1.07046,.13845,1.59866,.07154,1.07822,.10884,2.14489,.11726,3.21936,.00383,.51661-.00459,1.02614-.01302,1.53568,.00845,.07021,.00729,.143-.00361,.21834-.0232,.49283-.03938,.97341-.07233,1.46879-.03219,.53663-.06697,1.06358-.1185,1.60539-.04445,.52955-.10824,1.06428-.17202,1.59901s-.13978,1.06237-.22549,1.59261c-.08566,.53023-.17137,1.06047-.27635,1.59594-.06653,.36979-.14278,.74224-.22157,1.10495-.03587,.17529-.07878,.36277-.11465,.53806-.11277,.5064-.23778,1.00579-.37245,1.50776-.09744,.40915-.20707,.81122-.31934,1.20368-.04998,.19974-.10969,.40208-.17902,.60699-.11223,.39239-.23676,.77778-.37091,1.16569-.00638,.05352-.0198,.11923-.05521,.18047-.13156,.39757-.26311,.79521-.40693,1.1857-.05971,.20234-.14122,.40022-.22021,.60773-.1323,.35638-.26454,.71275-.4091,1.06206-.0205,.07797-.05066,.15853-.0905,.24168-.17473,.42986-.35906,.8623-.54605,1.28509-.04169,.11467-.08601,.21975-.14709,.33962-.16833,.3764-.34626,.75537-.51718,1.1221-.03724,.09282-.08416,.18823-.14075,.28617-.22042,.45247-.45045,.90752-.68313,1.35291-.25126,.49182-.5148,.97651-.79052,1.45416-.27319,.48734-.54899,.96495-.83961,1.42593-.50977,.84057-1.05374,1.66958-1.6222,2.48449-.49963,.72399-1.03603,1.42674-1.57243,2.1295-.06176,.07866-.11384,.15479-.17554,.23344-.57951,.73503-1.17645,1.44365-1.78824,2.13557-.04761,.05414-.0952,.10835-.1428,.16249-.31651,.36435-.64522,.72161-.97657,1.06922-.34547,.37205-.69352,.73449-1.05382,1.08985l-.77529,.77713c-.00702,.01224-.01669,.01483-.02377,.02709l-20.00548,19.99927-152.87194,152.87524c2.43974-9.40182,2.57255-19.53135-.11916-29.57694l-23.60948-88.11178,58.9162-58.92649,6.52464-6.52088,61.25426-61.25084c12.80338-12.79996,30.81522-17.21208,47.20734-13.21862l.15595,.04105c.87176,.20121,1.74427,.44367,2.60515,.72028,.54133,.16552,1.0852,.34079,1.63164,.5256,1.06844,.35558,2.12796,.755,3.17136,1.21049,1.02342,.41939,2.03792,.88256,3.04856,1.40895,.50143,.24869,.99326,.49995,1.48054,.77316,.48216,.25385,.94756,.52256,1.41556,.80093,.02193,.00449,.0367,.02119,.04896,.02827,.43128,.25712,.86252,.51432,1.27705,.78629,.08574,.0495,.17148,.09901,.23787,.15363,.29652,.17937,.59563,.3684,.87546,.56261,.31137,.19611,.60597,.40702,.90059,.61798,.10058,.06619,.1915,.13503,.2824,.20381,.30429,.20837,.60149,.42895,.8987,.64958q.01226,.00708,.01483,.01669c.21602,.14919,.41523,.31324,.62415,.47463,.05157,.038,.09086,.06886,.14248,.10678,.24564,.18264,.48421,.37753,.7131,.57502,.02193,.00449,.02452,.01416,.03678,.02123,.06381,.04502,.12763,.09003,.18436,.14731,.32947,.26368,.66155,.53708,.97692,.82526,.21405,.18074,.41591,.35445,.62028,.53778,.33465,.28301,.65263,.58092,.97054,.87879,.26117,.24059,.51526,.49344,.76936,.74629,.01485,.01675,.04194,.04051,.05679,.05726,.23149,.20716,.44886,.43875,.6636,.66076,.49599,.4986,.97516,1.01207,1.44473,1.52812,.07159,.07402,.13354,.15056,.20513,.22458,.17802,.20076,.35863,.41118,.53924,.6216,.02968,.03343,.05933,.06694,.08901,.10038,.23741,.26768,.46508,.53797,.68574,.82051,.0916,.11005,.17094,.21302,.26254,.32306,.33935,.41635,.66898,.8353,.99159,1.26649,.73681,.97244,1.42788,1.9675,2.09256,2.97993,.6647,1.01249,1.27144,2.04044,1.8447,3.09816,.59264,1.05246,1.14212,2.13721,1.63105,3.22782,.51339,1.10478,.97856,2.22248,1.39537,3.35308,.14215,.37605,.2721,.745,.40456,1.12358,.0737,.19768,.13772,.39796,.20173,.59818,.30643,.91178,.58384,1.83134,.8323,2.75859Z" style="fill: #f2f2f2;"/>
  <path d="M140.28288,146.81058l46.37262,173.06497c4.6898,17.50257-.51428,35.32683-12.19241,47.53536l-.7418,.74743c-.40082,.39731-.81132,.79714-1.2244,1.18737-.81909,.76814-1.66787,1.50284-2.5244,2.2086-.39966,.32452-.79218,.63676-1.19444,.95155-.91967,.70195-1.84968,1.36528-2.79967,1.99251-.39585,.26138-.78205,.52012-1.18308,.76217-.70802,.44853-1.4238,.86812-2.15444,1.27096-.28841,.16006-.5768,.32017-.86779,.47062-.35344,.18784-.7094,.36606-1.06541,.5443-.23562,.12525-.47383,.24083-.71464,.34674-.25488,.13047-.51502,.24157-.77252,.36231-.02642,.01744-.0431,.03228-.07211,.04005-.15643,.07294-.30583,.1337-.46227,.20664-.0747,.03038-.15642,.073-.24079,.10597-.08172,.04262-.17577,.07812-.26975,.11367-.25755,.12076-.52021,.22223-.78035,.33332-1.98754,.8121-4.02801,1.5038-6.0951,2.05768-.5023,.13459-1.0168,.26209-1.52428,.37734-.39859,.09644-.79982,.18329-1.20101,.27006-.26341,.06022-.54869,.11593-.81726,.15687-.40378,.0771-.80759,.15428-1.21395,.22177-.07021,.00845-.1475,.02916-.21772,.03761-.02187-.0045-.04121,.00068-.06054,.00586-.07021,.00845-.14744,.02914-.22023,.02799-.34588,.06159-.68461,.11096-1.026,.15063-.27111,.03125-.53968,.07219-.8012,.10081-.26858,.04094-.53003,.06954-.80379,.09115-.53525,.05028-1.07046,.10049-1.59864,.13851-4.35603,.31826-8.6542,.04127-12.82544-.76665-.53542-.10505-1.06116-.21264-1.58955-.32988-.2532-.05638-.51866-.11984-.78412-.18331-.26287-.05379-.53098-.12691-.78676-.1929-1.03808-.28094-2.07873-.57149-3.11304-.91548-.93178-.30942-1.85917-.64068-2.77752-1.01575-.40276-.1509-.81075-.32112-1.22126-.50097-.29066-.11882-.58391-.24732-.86749-.3784-.04643-.01858-.09282-.03724-.13921-.0559-.07089-.03276-.14178-.06551-.20047-.09117-.25906-.11693-.5182-.2339-.77016-.36302-.36932-.18059-.72638-.35409-1.09829-.54435-.37195-.19018-.74644-.39004-1.12353-.59964l-.07348-.04242c-.26423-.13621-.53112-.28212-.80054-.43772-.5363-.30146-1.06552-.61518-1.59024-.95077-.29399-.16968-.58083-.35164-.86061-.54586-.19859-.12283-.38744-.24821-.57894-.38324-.37518-.24113-.73107-.48737-1.0895-.74335-.39261-.26749-.78078-.55688-1.1689-.8463-.2972-.22057-.597-.45088-.86784-.68887-.24305-.17297-.46936-.36079-.69572-.54859-.18179-.1377-.35654-.28758-.50942-.43295-.23597-.18523-.46228-.37305-.67891-.56345-.09609-.08812-.1896-.16663-.28569-.25475-.46044-.40463-.91115-.81186-1.35742-1.24094-.31796-.29785-.63846-.60538-.94929-.91551-.05679-.05726-.11094-.10487-.15806-.16471-.17993-.16922-.35277-.35064-.51596-.5347-.08124-.07137-.15282-.14539-.22439-.21936l-.39282-.42275c-.34828-.37256-.6869-.74772-1.01848-1.13506-.33862-.37516-.67021-.76255-.98246-1.15507l-.24253-.28704c-.04448-.0502-.07934-.10297-.12388-.15315-.23802-.30891-.47353-.60819-.72123-.9145l-.00259-.00967-.11162-.14607c-.01485-.01675-.02968-.03343-.03487-.05277-.30259-.39517-.5955-.79287-.87875-1.19323-.16392-.22526-.31812-.45312-.47237-.68097-.16385-.22522-.30843-.45566-.46004-.67385-.30851-.4557-.59762-.9166-.88931-1.3871-.28917-.46088-.55899-.92688-.82877-1.39296-.46222-.79756-.88572-1.6055-1.29958-2.41595l-.2964-.6039c-.19376-.41397-.38493-.81827-.56644-1.22516l-.6763-1.55804c-.16924-.39981-.32882-.80222-.47872-1.20721l-.47049-1.29226-.04073-.11332c-.10216-.30392-.20167-.59819-.29417-.9047l-.76058-2.52935L26.48401,108.47775c6.91676,6.84301,15.63972,12.04247,25.69825,14.73075l88.10061,23.60208Z" style="fill: #f2f2f2;"/>
  <path d="M291.81121,97.33642l-64.5201,64.5174-80.47398-21.5667-8.92315-2.39202-83.63904-22.40607c-17.8779-4.78594-30.8878-18.68227-35.36727-35.36118-.22776-.85002-.43619-1.70522-.61566-2.56818-.08161-.38191-.16068-.75413-.22036-1.13155-.27871-1.42642-.48722-2.86135-.63069-4.32407-.0385-.41418-.07699-.8283-.10582-1.24508-.03938-.61059-.07876-1.22118-.10141-1.84668-.01867-.5333-.03028-1.07892-.02961-1.61739-.002-.54819-.00134-1.08673,.01866-1.63039,.01475-.56304,.03918-1.12862,.08296-1.69937,.02014-.38844,.04994-.77954,.09201-1.1635,.03548-.48569,.08325-.96438,.14064-1.44565,.17475-1.43412,.39787-2.88114,.6963-4.31732,.19725-.9639,.42609-1.9259,.68647-2.886l-.00259-.00967c.11412-.42399,.2309-.83833,.35728-1.25524,.17451-.58512,.35869-1.17284,.55507-1.75346,.36457-1.11224,.77551-2.20587,1.22323-3.27828,.05584-.13919,.11175-.2784,.17018-.40792,.19141-.4447,.38548-.87975,.58915-1.31737,.22674-.50598,.46835-.99516,.71963-1.48692-.00259-.00967,.00449-.02193,.01157-.03419,.23458-.47699,.48137-.94683,.73073-1.40705,.44929-.83473,.92304-1.65529,1.42647-2.44241,.14143-.24496,.29506-.48283,.45842-.72331,.42752-.68394,.86993-1.35121,1.34198-1.98497,.23214-.33138,.46687-.6531,.71127-.9774,.75439-1.00962,1.54811-1.98845,2.37408-2.92405,.22833-.26825,.45931-.52684,.69282-.77576,.63814-.70935,1.30339-1.39488,1.98606-2.05405,.35323-.3431,.69938-.67395,1.06485-1.01003,.88861-.81785,1.80692-1.60222,2.75484-2.35319,3.76278-2.99595,7.9546-5.43396,12.42614-7.25325,.38566-.14472,.76877-.29919,1.15442-.44392,.38831-.13507,.77395-.27986,1.17186-.4175,.25564-.08922,.50161-.17586,.75978-.2554,1.6935-.55727,3.42956-1.03281,5.19411-1.40206,.4109-.08944,.81208-.17621,1.2281-.24629,.40383-.07712,.81726-.15687,1.22628-.21465,.84171-.14276,1.6912-.25645,2.55817-.34386,.24925-.0357,.50108-.06179,.7555-.07821,.27112-.0312,.54488-.0528,.81864-.0744,.2737-.02159,.54747-.04313,.81415-.05247,.39483-.03338,.7948-.04735,1.19482-.06133,.54303-.02128,1.08858-.03287,1.62711-.03227,.48501-.00573,.96301,.00078,1.4532,.01439,.66479,.00821,1.32769,.04802,1.99057,.08777,.48577,.03552,.97146,.07099,1.45982,.11618,.54438,.06114,1.09839,.11976,1.64538,.19062s1.09655,.15134,1.64871,.24148c.54958,.08053,1.09466,.18294,1.64232,.29501,.55734,.10948,1.105,.22155,1.64818,.35555,.55024,.12168,1.10568,.26276,1.65145,.40643l.14627,.04358,28.21668,7.55443,208.84087,55.96495c-9.6218,2.65063-18.44257,7.78868-25.52753,14.8842Z" style="fill: #f2f2f2;"/>
</svg>