<svg width="512" height="512" viewBox="0 0 512 512" fill="none" xmlns="http://www.w3.org/2000/svg">
<g clip-path="url(#clip0_1205_4577)">
<path fill-rule="evenodd" clip-rule="evenodd" d="M305.946 4.88078C256.283 -4.9978 204.806 0.0722418 158.025 19.4498C111.243 38.8273 71.2584 71.642 43.1266 113.744C14.9948 155.846 -0.0205078 205.345 -0.0205078 255.981C-0.0205078 323.882 26.9529 389.002 74.966 437.015C122.979 485.028 188.099 512.001 255.999 512.001C306.635 512.001 356.134 496.986 398.236 468.854C440.339 440.722 473.153 400.737 492.531 353.956C511.908 307.174 516.978 255.697 507.1 206.034C497.221 156.371 472.838 110.753 437.033 74.9479C401.228 39.1429 355.609 14.7594 305.946 4.88078ZM175.08 60.6255C213.718 44.6212 256.234 40.4337 297.251 48.5927C338.269 56.7516 375.946 76.8904 405.518 106.462C435.09 136.034 455.229 173.711 463.388 214.729C471.547 255.747 467.359 298.262 451.355 336.9C435.351 375.538 408.249 408.562 373.475 431.797C338.702 455.031 297.82 467.433 255.999 467.433C199.919 467.433 146.135 445.155 106.48 405.5C66.8256 365.845 44.5477 312.062 44.5477 255.981C44.5477 214.16 56.9491 173.278 80.1837 138.505C103.418 103.732 136.443 76.6297 175.08 60.6255ZM375.343 256.496V272.541L184.769 272.58C184.649 282.437 186.977 292.17 191.544 300.906C195.96 309.294 202.023 316.705 209.371 322.695C216.988 328.865 225.649 333.621 234.943 336.739C244.62 340.051 254.784 341.718 265.012 341.671C277.899 341.98 290.603 338.583 301.617 331.886C312.49 324.924 322.146 316.225 330.2 306.135L364.31 332.222C339.233 364.642 304.133 380.851 259.01 380.851C241.583 381.094 224.282 377.855 208.123 371.324C193.527 365.397 180.364 356.422 169.517 344.999C158.833 333.559 150.56 320.086 145.193 305.382C139.403 289.569 136.518 272.84 136.675 256.001C136.519 239.094 139.669 222.319 145.945 206.619C151.822 191.882 160.507 178.427 171.518 167.003C182.552 155.673 195.774 146.703 210.381 140.638C225.944 134.203 242.645 130.976 259.485 131.15C280.614 131.164 298.441 134.841 312.967 142.183C326.876 149.045 339.103 158.885 348.78 171.004C358.143 182.895 365.045 196.53 369.084 211.116C373.243 225.884 375.349 241.154 375.343 256.496ZM190.157 212.126C186.731 219.784 184.911 228.062 184.809 236.45L327.289 236.43C327.067 227.056 325.465 217.765 322.535 208.858C319.842 200.779 315.482 193.356 309.739 187.069C303.794 180.708 296.516 175.743 288.425 172.529C278.921 168.84 268.786 167.05 258.594 167.26C248.152 167.139 237.808 169.274 228.268 173.52C219.514 177.393 211.596 182.929 204.954 189.822C198.729 196.313 193.717 203.867 190.157 212.126Z" fill="white"/>
</g>
<defs>
<clipPath id="clip0_1205_4577">
<rect width="512" height="512" fill="white"/>
</clipPath>
</defs>
</svg>
